<svg xmlns="http://www.w3.org/2000/svg" enable-background="new 0 0 32 32" viewBox="0 0 32 32" id="profile"><path d="M16 14.41553c3.83691 0 6.95801-3.12109 6.95801-6.95752S19.83691.5 16 .5 9.04199 3.62158 9.04199 7.45801 12.16309 14.41553 16 14.41553zM16 3.5c2.18262 0 3.95801 1.77539 3.95801 3.95801 0 2.18213-1.77539 3.95752-3.95801 3.95752s-3.95801-1.77539-3.95801-3.95752C12.04199 5.27539 13.81738 3.5 16 3.5zM23.75879 16.59961H8.24121c-4.1084 0-7.4502 3.34229-7.4502 7.4502S4.13281 31.5 8.24121 31.5h15.51758c4.1084 0 7.4502-3.34229 7.4502-7.4502S27.86719 16.59961 23.75879 16.59961zM23.75879 28.5H8.24121c-2.4541 0-4.4502-1.99658-4.4502-4.4502s1.99609-4.4502 4.4502-4.4502h15.51758c2.4541 0 4.4502 1.99658 4.4502 4.4502S26.21289 28.5 23.75879 28.5z"></path></svg>